REM MD5 5c181d2ae5ace08639fee038dc86d444
FILE "Dengeki PlayStation D42 (Japan).bin" BINARY
  TRACK 01 MODE2/2352
    INDEX 01 00:00:00
  TRACK 02 AUDIO
    INDEX 00 60:04:14
    INDEX 01 60:06:14
  TRACK 03 AUDIO
    INDEX 00 61:42:32
    INDEX 01 61:44:32
  TRACK 04 AUDIO
    INDEX 00 63:43:55
    INDEX 01 63:45:55
REM LEADOUT 67:33:18
